# xmcd
#
# Track frame offsets: 
#        150
#        28395
#        41769
#        54830
#        67510
#        97188
#        109765
#        126453
#        151149
#        169340
#
# Disc length: 2605 seconds
#
# Revision: 0
# Processed by: cddbd v1.5.2PL0 Copyright (c) Steve Scherf et al.
# Submitted via: ExactAudioCopy v1.0b4
#
DISCID=840a2b0a
DTITLE=Various Artist - Blues Selection Voll II (DLP) LP 1
DYEAR=1900
DGENRE=Blues
TTITLE0=Freddie Robinson - Freddie Robinson - Bluesology
TTITLE1=Johnny Taylor - Johnny Taylor - I Know You Hear Me Calling
TTITLE2=Little Sonny - Little Sonny - They Want Money
TTITLE3=John Lee Hooker - John Lee Hooker - Please Don't Go
TTITLE4=Little Milton - Little Milton - Let Me Down Easy
TTITLE5=K C Douglas  - K C Douglas - Little Green House
TTITLE6=Little Sonny - Little Sonny - Blues With A Feeling
TTITLE7=Albert King - Albert King - Call It Stormy Monday
TTITLE8=Freddie Robinson - Freddie Robinson - At The Drive In
TTITLE9=Albert King - Albert King - Night  Stomp
EXTD=
EXTT0=
EXTT1=
EXTT2=
EXTT3=
EXTT4=
EXTT5=
EXTT6=
EXTT7=
EXTT8=
EXTT9=
PLAYORDER=
